HIERARCHY
ROOT Hips
{
 OFFSET 0.000000 0.000000 0.000000
 CHANNELS 6 Xposition Yposition Zposition Yrotation Xrotation Zrotation
 JOINT Chest
 {
  OFFSET 0.000000 10.224184 -1.136021
  CHANNELS 3 Yrotation Xrotation Zrotation
  JOINT Chest2
  {
   OFFSET 0.000000 11.333266 0.000000
   CHANNELS 3 Yrotation Xrotation Zrotation
   JOINT Chest3
   {
    OFFSET 0.000000 10.347983 -0.005192
    CHANNELS 3 Yrotation Xrotation Zrotation
    JOINT Chest4
    {
     OFFSET 0.000000 10.336430 -0.005197
     CHANNELS 3 Yrotation Xrotation Zrotation
     JOINT Neck
     {
      OFFSET 0.000000 14.463488 0.000000
      CHANNELS 3 Yrotation Xrotation Zrotation
      JOINT Head
      {
       OFFSET 0.000000 9.624711 0.011165
       CHANNELS 3 Yrotation Xrotation Zrotation
       End Site
       {
        OFFSET 0.000000 17.845869 0.001502
       }
      }
     }
     JOINT RightCollar
     {
      OFFSET -3.157643 8.110621 0.000000
      CHANNELS 3 Yrotation Xrotation Zrotation
      JOINT RightShoulder
      {
       OFFSET -14.841244 0.000000 0.000000
       CHANNELS 3 Yrotation Xrotation Zrotation
       JOINT RightElbow
       {
        OFFSET -31.724693 0.000000 0.000000
        CHANNELS 3 Yrotation Xrotation Zrotation
        JOINT RightWrist
        {
         OFFSET -25.942014 0.000000 0.000000
         CHANNELS 3 Yrotation Xrotation Zrotation
         End Site
         {
          OFFSET -19.392695 0.000000 0.000000
         }
        }
       }
      }
     }
     JOINT LeftCollar
     {
      OFFSET 3.157643 8.110621 0.000000
      CHANNELS 3 Yrotation Xrotation Zrotation
      JOINT LeftShoulder
      {
       OFFSET 14.841244 0.000000 0.000000
       CHANNELS 3 Yrotation Xrotation Zrotation
       JOINT LeftElbow
       {
        OFFSET 31.724693 0.000000 0.000000
        CHANNELS 3 Yrotation Xrotation Zrotation
        JOINT LeftWrist
        {
         OFFSET 25.942014 0.000000 0.000000
         CHANNELS 3 Yrotation Xrotation Zrotation
         End Site
         {
          OFFSET 19.392695 0.000000 0.000000
         }
        }
       }
      }
     }
    }
   }
  }
 }
 JOINT RightHip
 {
  OFFSET -8.427108 0.013854 -0.001539
  CHANNELS 3 Yrotation Xrotation Zrotation
  JOINT RightKnee
  {
   OFFSET 0.000000 -43.437391 -0.001227
   CHANNELS 3 Yrotation Xrotation Zrotation
   JOINT RightAnkle
   {
    OFFSET 0.000000 -42.439704 -0.002068
    CHANNELS 3 Yrotation Xrotation Zrotation
    JOINT RightToe
    {
     OFFSET 0.000000 -8.481460 19.371378
     CHANNELS 3 Yrotation Xrotation Zrotation
     End Site
     {
      OFFSET 0.000000 -1.743714 7.762478
     }
    }
   }
  }
 }
 JOINT LeftHip
 {
  OFFSET 8.427108 0.011561 -0.001285
  CHANNELS 3 Yrotation Xrotation Zrotation
  JOINT LeftKnee
  {
   OFFSET 0.000000 -43.437391 -0.001227
   CHANNELS 3 Yrotation Xrotation Zrotation
   JOINT LeftAnkle
   {
    OFFSET 0.000000 -42.439704 -0.002068
    CHANNELS 3 Yrotation Xrotation Zrotation
    JOINT LeftToe
    {
     OFFSET 0.000000 -8.481460 19.371378
     CHANNELS 3 Yrotation Xrotation Zrotation
     End Site
     {
      OFFSET 0.000000 -1.743714 7.762478
     }
    }
   }
  }
 }
}
MOTION
Frames: 14
Frame Time: 0.004167
255.420627 92.554676 -472.272570 -164.986170 5.324671 -1.710947 0.401825 -0.328082 0.450616 0.158437 -5.971729 0.201649 0.157557 -0.151318 0.217733 0.134902 5.723230 0.164168 1.435352 9.467167 1.053811 2.303196 -18.450450 1.378534 2.480531 1.939786 5.944718 -15.036275 -4.844951 64.581419 79.129491 -5.718726 38.531667 18.167686 -0.486407 -9.787990 -2.835258 1.085569 -7.925025 28.952305 12.130543 -61.637850 -63.399040 -17.679075 -46.744146 -23.283780 -5.177059 3.179905 -11.037855 -13.699602 -3.939061 -42.074991 81.389849 -44.855330 -3.905436 -7.680292 4.022007 -0.000000 0.000000 -0.000000 6.799033 -29.006909 -2.842691 2.423803 31.598482 2.077191 -5.451016 -17.813711 0.172706 0.000000 0.000000 -0.000000
255.280258 92.183615 -473.043240 -164.905780 5.222611 -1.635973 0.327482 -0.208742 0.410696 0.127089 -5.918796 0.183656 0.126393 -0.098376 0.196557 0.109885 5.762925 0.148196 1.429494 9.352140 1.076706 2.281406 -18.664313 1.424882 2.422147 1.764943 5.973667 -15.360951 -4.373353 64.529556 78.750908 -5.511222 38.615174 18.161866 -0.599876 -9.804064 -2.923485 1.087453 -8.004688 28.146335 11.586475 -61.937967 -63.473803 -17.716664 -46.227680 -23.414560 -5.198403 3.385503 -11.379094 -14.399469 -3.977212 -50.243931 82.549643 -53.524919 -4.222437 -8.099628 3.727312 -0.000000 0.000000 -0.000000 6.771327 -29.325962 -3.055566 1.488794 33.249075 1.841335 -4.600671 -18.139259 0.460330 0.000000 -0.000000 -0.000000
255.144330 91.802352 -473.804336 -164.821333 5.115374 -1.556818 0.254857 -0.080798 0.367478 0.096663 -5.862026 0.164225 0.096140 -0.041601 0.174038 0.085450 5.805497 0.131215 1.418382 9.228847 1.101465 2.248352 -18.893532 1.477422 2.357530 1.574150 6.007032 -15.712287 -3.890820 64.478364 78.339127 -5.277429 38.705714 18.153580 -0.722780 -9.821700 -3.015301 1.090841 -8.090198 27.278052 11.010407 -62.237078 -63.548429 -17.747693 -45.665561 -23.558999 -5.221505 3.615661 -11.738229 -15.120303 -4.003315 -61.055431 83.490252 -64.848871 -4.532811 -8.515688 3.416452 -0.000000 0.000000 -0.000000 6.752237 -29.702161 -3.290037 0.337207 35.057454 1.479642 -3.594286 -18.599127 0.731274 0.000000 -0.000000 -0.000000
255.011855 91.417121 -474.559117 -164.735183 5.005158 -1.475030 0.183565 0.052854 0.322265 0.066935 -5.802706 0.143944 0.066578 0.017723 0.150739 0.061477 5.849983 0.113650 1.403556 9.099902 1.126678 2.207654 -19.133225 1.532744 2.289006 1.374793 6.043776 -16.081428 -3.399033 64.426125 77.902879 -5.020145 38.796929 18.143984 -0.852864 -9.840251 -3.108952 1.095187 -8.180400 26.369693 10.406609 -62.529856 -63.619988 -17.770520 -45.076229 -23.711841 -5.244693 3.862289 -12.108759 -15.857808 -4.018069 -74.605737 84.113835 -78.916845 -4.833446 -8.928567 3.096696 0.000000 -0.000000 0.000000 6.744675 -30.110045 -3.538830 -0.991245 36.964088 0.991650 -2.477486 -19.168768 0.973481 -0.000000 -0.000000 -0.000000
254.881848 91.034153 -475.310840 -164.649671 4.894175 -1.392143 0.113239 0.189316 0.276350 0.037689 -5.742122 0.123393 0.037487 0.078309 0.127220 0.037845 5.895416 0.095922 1.386560 8.967913 1.150920 2.162977 -19.378528 1.587380 2.218918 1.174249 6.082807 -16.459550 -2.899674 64.371326 77.450737 -4.742590 38.882654 18.134267 -0.987865 -9.859158 -3.202667 1.099944 -8.274154 25.443246 9.779703 -62.811851 -63.685729 -17.784093 -44.478137 -23.867942 -5.266535 4.117185 -12.484210 -16.607649 -4.022273 -89.849921 84.339662 -94.677358 -5.120935 -9.338303 2.775079 -0.000000 0.000000 0.000000 6.751073 -30.524143 -3.794427 -2.453854 38.909349 0.384201 -1.296778 -19.823688 1.177695 0.000000 -0.000000 -0.000000
254.753322 90.659681 -476.062762 -164.567125 4.784646 -1.309670 0.043525 0.325689 0.231020 0.008710 -5.681563 0.103150 0.008656 0.138869 0.104035 0.014439 5.940832 0.078447 1.368938 8.835484 1.172753 2.118029 -19.624593 1.637798 2.149627 0.979887 6.122975 -16.837861 -2.394418 64.312663 76.991084 -4.448424 38.956970 18.125663 -1.125526 -9.877958 -3.294655 1.104559 -8.370344 24.520462 9.134624 -63.079578 -63.743145 -17.787969 -43.889726 -24.022280 -5.285853 4.372024 -12.858123 -17.365450 -4.016838 -104.668082 84.160341 -110.003981 -5.391605 -9.744885 2.458422 0.000000 0.000000 0.000000 6.773308 -30.918982 -4.048999 -4.001962 40.834355 -0.325417 -0.099734 -20.539621 1.337880 0.000000 0.000000 0.000000
254.625292 90.299939 -476.818140 -164.489860 4.678802 -1.229112 -0.025915 0.459069 0.187550 -0.020210 -5.622318 0.083782 -0.020122 0.198112 0.081732 -0.008855 5.985262 0.061641 1.352238 8.705211 1.190724 2.076569 -19.866594 1.680397 2.083512 0.799065 6.163072 -17.207592 -1.884928 64.249046 76.532096 -4.141756 39.014250 18.119445 -1.263588 -9.896288 -3.383103 1.108474 -8.467875 23.622877 8.476564 -63.330555 -63.790024 -17.782304 -43.329379 -24.169970 -5.301732 4.618370 -13.224043 -18.126799 -4.002790 -117.253465 83.657980 -123.083441 -5.641547 -10.148267 2.153358 0.000000 0.000000 -0.000000 6.812667 -31.269104 -4.294353 -5.577797 42.681928 -1.106610 1.064824 -21.292721 1.451453 0.000000 -0.000000 -0.000000
254.496771 89.961158 -477.580232 -164.420177 4.578887 -1.151953 -0.095403 0.586554 0.147208 -0.049274 -5.565681 0.065855 -0.049049 0.254748 0.060854 -0.032147 6.027738 0.045912 1.338008 8.579686 1.203365 2.042400 -20.099723 1.711508 2.022964 0.639130 6.201828 -17.559992 -1.372853 64.179586 76.081732 -3.827123 39.049189 18.116937 -1.399797 -9.913901 -3.466178 1.111125 -8.565673 22.771856 7.810911 -63.563314 -63.824473 -17.767821 -42.815397 -24.306267 -5.313518 4.847681 -13.575509 -18.887255 -3.981289 -127.075558 82.954085 -133.378712 -5.866664 -10.548379 1.866368 -0.000000 0.000000 -0.000000 6.869869 -31.549073 -4.521921 -7.111607 44.397527 -1.913284 2.146660 -22.059738 1.519314 -0.000000 -0.000000 -0.000000
254.366774 89.649572 -478.352294 -164.360366 4.487150 -1.079664 -0.165246 0.705239 0.111258 -0.078680 -5.512942 0.049928 -0.078323 0.307483 0.041942 -0.055546 6.067290 0.031669 1.327798 8.461492 1.209190 2.019372 -20.319189 1.727397 1.970387 0.507423 6.237918 -17.886323 -0.859821 64.103588 75.647729 -3.509453 39.056826 18.119507 -1.531905 -9.930657 -3.542022 1.111947 -8.662682 21.988632 7.143180 -63.777366 -63.844914 -17.745751 -42.365977 -24.426550 -5.320809 5.051331 -13.906040 -19.642355 -3.953628 -134.488748 82.157727 -141.237652 -6.062734 -10.945136 1.603831 0.000000 0.000000 0.000000 6.945148 -31.733491 -4.722774 -8.519833 45.929850 -2.683012 3.094042 -22.818117 1.545666 -0.000000 -0.000000 -0.000000
254.234314 89.371414 -479.137585 -164.312709 4.405851 -1.013709 -0.235739 0.812223 0.080961 -0.108624 -5.465395 0.036560 -0.108136 0.355025 0.025533 -0.079154 6.102948 0.019315 1.323157 8.353208 1.206701 2.011365 -20.520212 1.724276 1.928184 0.411275 6.269959 -18.177854 -0.347436 64.020528 75.237612 -3.194010 39.032546 18.128575 -1.657672 -9.946531 -3.608760 1.110372 -8.757861 21.294358 6.478967 -63.973128 -63.850038 -17.717765 -41.999196 -24.526312 -5.323442 5.220628 -14.209122 -20.387617 -3.921247 -140.077460 81.349694 -147.238139 -6.225476 -11.338459 1.372086 -0.000000 -0.000000 0.000000 7.038399 -31.797005 -4.887689 -9.705289 47.230802 -3.338428 3.853781 -23.545977 1.537588 0.000000 0.000000 0.000000
254.098404 89.132915 -479.939361 -164.279480 4.337252 -0.955546 -0.307165 0.904607 0.057584 -0.139297 -5.424332 0.026308 -0.138677 0.396083 0.012167 -0.103075 6.133744 0.009259 1.325637 8.257403 1.194385 2.022284 -20.698018 1.698318 1.898748 0.358014 6.296516 -18.425857 0.162724 63.930027 74.858713 -2.886319 38.972068 18.145602 -1.774864 -9.961611 -3.664491 1.105834 -8.850176 20.710157 5.823909 -64.151811 -63.838733 -17.685890 -41.733021 -24.601123 -5.321467 5.346844 -14.478201 -21.118551 -3.885737 -144.353800 80.587102 -151.885718 -6.350636 -11.728282 1.177501 -0.000000 -0.000000 -0.000000 7.149400 -31.714313 -5.007264 -10.560311 48.254453 -3.791827 4.371442 -24.221916 1.504362 0.000000 0.000000 0.000000
253.957470 88.928084 -480.759057 -164.257191 4.276635 -0.902784 -0.378949 0.987117 0.040390 -0.170412 -5.387654 0.018838 -0.169664 0.432753 0.001538 -0.127119 6.161249 0.001269 1.333409 8.168953 1.171150 2.049177 -20.862122 1.648160 1.883265 0.351303 6.317621 -18.624547 0.682188 63.838184 74.494480 -2.573716 38.855709 18.174264 -1.889967 -9.979114 -3.709111 1.101213 -8.946400 20.231779 5.148359 -64.312623 -63.799773 -17.636396 -41.576766 -24.653391 -5.317165 5.431856 -14.720977 -21.841795 -3.848663 -147.862393 79.887279 -155.734278 -6.429575 -12.116612 1.008576 0.000000 0.000000 -0.000000 7.315243 -31.486896 -5.098005 -11.081828 49.045242 -4.007604 4.630775 -24.908428 1.450493 -0.000000 -0.000000 0.000000
253.811582 88.746307 -481.594032 -164.241115 4.218559 -0.852272 -0.450379 1.065930 0.027519 -0.201572 -5.352619 0.013321 -0.200696 0.467778 -0.007144 -0.151048 6.187521 -0.005250 1.343631 8.081751 1.137927 2.086056 -21.023855 1.576944 1.879888 0.385457 6.334584 -18.779822 1.220186 63.750004 74.125053 -2.244849 38.675417 18.215379 -2.009780 -10.000849 -3.744611 1.098914 -9.052041 19.832930 4.428144 -64.456166 -63.727693 -17.560626 -41.516980 -24.689851 -5.312773 5.486137 -14.949689 -22.566351 -3.809486 -150.947062 79.240378 -159.139712 -6.460128 -12.504583 0.849102 0.000000 0.000000 -0.000000 7.557985 -31.143171 -5.178843 -11.354368 49.686955 -4.021444 4.676600 -25.670121 1.378315 -0.000000 -0.000000 0.000000
253.662228 88.586887 -482.441432 -164.231654 4.164199 -0.804328 -0.521532 1.140324 0.018563 -0.232792 -5.319549 0.009570 -0.231792 0.500836 -0.014065 -0.174889 6.212317 -0.010438 1.356329 7.996897 1.096222 2.132265 -21.181152 1.487583 1.886429 0.453777 6.347891 -18.900500 1.771640 63.663425 73.752844 -1.906870 38.444803 18.266154 -2.132473 -10.024961 -3.772208 1.097675 -9.164158 19.501672 3.676957 -64.586309 -63.630198 -17.468048 -41.537197 -24.712561 -5.308346 5.513853 -15.164595 -23.291268 -3.766729 -153.688983 78.649422 -162.181016 -6.447905 -12.890904 0.698781 0.000000 0.000000 -0.000000 7.855113 -30.698405 -5.244084 -11.402707 50.191518 -3.855974 4.545831 -26.488630 1.293637 -0.000000 -0.000000 0.000000
